<?xml version="1.0" encoding="UTF-8" standalone="no"?><!DOCTYPE svg PUBLIC "-//W3C//DTD SVG 1.1//EN" "http://www.w3.org/Graphics/SVG/1.1/DTD/svg11.dtd"><svg width="100%" height="100%" viewBox="0 0 280 280" version="1.1" xmlns="http://www.w3.org/2000/svg" xmlns:xlink="http://www.w3.org/1999/xlink" xml:space="preserve" xmlns:serif="http://www.serif.com/" style="fill-rule:evenodd;clip-rule:evenodd;stroke-linejoin:round;stroke-miterlimit:2;"><rect id="main" x="0" y="0" width="280" height="280" style="fill:none;"/><g><path d="M231.366,150.715c-5.344,45.961 -44.374,81.285 -91.378,81.285c-17.213,0 -34.08,-4.829 -48.685,-13.937l-4.234,6.788c15.875,9.9 34.209,15.149 52.919,15.149c52.159,0 95.285,-40.017 99.639,-91.499l23.566,-6.314l-2.071,-7.728l-182.06,48.783l2.07,7.728l150.234,-40.255Zm-146.916,65.758l-10.964,-40.917l-30.872,8.273l10.964,40.916l7.727,-2.071l5.643,-9.774l9.774,5.643l7.728,-2.07Zm-20.43,-14.501l9.774,5.643l-5.965,-22.261l-15.417,4.131l5.965,22.261l5.643,-9.774Zm-23.671,-70.473l-23.083,6.185l0,-0c-0.306,3.182 -0.459,6.378 -0.459,9.575c0,20.092 6.052,39.708 17.352,56.297l9.412,-2.522l-2.07,-7.727l-3.751,1.005c-8.45,-14.196 -12.943,-30.448 -12.943,-47.053c0,-1.11 0.02,-2.221 0.06,-3.33l225.621,-60.455l-2.07,-7.727l-199.806,53.538c5.366,-46.052 44.451,-81.285 91.376,-81.285c21.063,-0 41.488,7.227 57.863,20.475l5.032,-6.22c-17.799,-14.399 -40.001,-22.255 -62.895,-22.255c-52.07,0 -95.259,39.913 -99.639,91.499Z" style="fill:#fff;fill-opacity:0.9;"/><path d="M60.085,167.365c0.398,1.483 0.321,2.796 -0.231,3.938c-0.551,1.141 -1.44,2.112 -2.666,2.913c-1.227,0.801 -2.652,1.419 -4.274,1.853l-12.136,3.252l-6.616,-24.689l14.327,-3.839c1.159,-0.31 2.244,-0.272 3.255,0.116c1.011,0.387 1.872,1.007 2.585,1.86c0.713,0.853 1.21,1.8 1.489,2.844c0.304,1.136 0.304,2.316 -0.002,3.541c-0.305,1.224 -0.977,2.262 -2.017,3.112c1.526,0.038 2.84,0.469 3.943,1.291c1.102,0.823 1.883,2.092 2.343,3.808Zm-7.258,0.454c-0.112,-0.418 -0.285,-0.763 -0.519,-1.035c-0.235,-0.273 -0.504,-0.468 -0.809,-0.585c-0.305,-0.117 -0.631,-0.129 -0.979,-0.036l-5.598,1.5l1.109,4.138l5.355,-1.434c0.371,-0.1 0.685,-0.271 0.943,-0.514c0.258,-0.243 0.433,-0.539 0.526,-0.887c0.093,-0.348 0.084,-0.73 -0.028,-1.147Zm-10.337,-9.231l1.015,3.79l4.625,-1.239c0.302,-0.081 0.578,-0.211 0.828,-0.39c0.25,-0.179 0.431,-0.432 0.541,-0.76c0.111,-0.328 0.099,-0.747 -0.038,-1.257c-0.124,-0.463 -0.298,-0.808 -0.52,-1.035c-0.222,-0.226 -0.472,-0.37 -0.749,-0.432c-0.278,-0.063 -0.567,-0.053 -0.869,0.027l-4.833,1.296Z" style="fill:#fff;fill-rule:nonzero;"/><path d="M75.945,170.084c-1.877,0.504 -3.676,0.607 -5.395,0.309c-1.72,-0.297 -3.29,-0.895 -4.711,-1.793c-1.421,-0.899 -2.628,-2.017 -3.62,-3.354c-0.991,-1.337 -1.702,-2.805 -2.13,-4.405c-0.441,-1.646 -0.547,-3.294 -0.319,-4.946c0.228,-1.651 0.748,-3.213 1.558,-4.685c0.811,-1.472 1.897,-2.75 3.259,-3.836c1.361,-1.085 2.958,-1.873 4.789,-2.364c1.878,-0.503 3.676,-0.606 5.396,-0.309c1.719,0.297 3.285,0.903 4.698,1.816c1.412,0.914 2.615,2.039 3.606,3.376c0.992,1.337 1.699,2.793 2.122,4.37c0.435,1.622 0.544,3.258 0.327,4.906c-0.217,1.648 -0.731,3.209 -1.541,4.68c-0.811,1.472 -1.89,2.755 -3.237,3.849c-1.346,1.094 -2.947,1.889 -4.802,2.386Zm-8.952,-11.018c0.223,0.835 0.555,1.609 0.995,2.324c0.44,0.714 0.974,1.316 1.602,1.807c0.628,0.49 1.344,0.82 2.148,0.989c0.803,0.17 1.691,0.125 2.665,-0.136c0.974,-0.261 1.77,-0.673 2.389,-1.237c0.62,-0.563 1.07,-1.224 1.351,-1.983c0.281,-0.758 0.428,-1.556 0.44,-2.391c0.012,-0.836 -0.09,-1.659 -0.308,-2.471c-0.223,-0.834 -0.553,-1.603 -0.99,-2.306c-0.437,-0.703 -0.97,-1.299 -1.598,-1.789c-0.628,-0.49 -1.348,-0.813 -2.16,-0.968c-0.812,-0.155 -1.693,-0.106 -2.643,0.149c-0.974,0.261 -1.765,0.672 -2.372,1.232c-0.608,0.56 -1.061,1.21 -1.36,1.948c-0.3,0.739 -0.455,1.526 -0.467,2.362c-0.012,0.835 0.09,1.659 0.308,2.47Z" style="fill:#fff;fill-rule:nonzero;"/><path d="M102.547,162.956c-1.878,0.504 -3.676,0.607 -5.396,0.31c-1.719,-0.298 -3.29,-0.895 -4.711,-1.794c-1.421,-0.899 -2.627,-2.017 -3.619,-3.354c-0.992,-1.337 -1.702,-2.805 -2.131,-4.404c-0.441,-1.646 -0.547,-3.295 -0.318,-4.946c0.228,-1.652 0.747,-3.214 1.558,-4.685c0.811,-1.472 1.897,-2.751 3.258,-3.836c1.362,-1.086 2.958,-1.874 4.79,-2.365c1.877,-0.503 3.676,-0.606 5.395,-0.309c1.72,0.297 3.286,0.903 4.698,1.816c1.413,0.914 2.615,2.039 3.607,3.376c0.992,1.337 1.699,2.793 2.121,4.37c0.435,1.622 0.544,3.258 0.327,4.906c-0.216,1.649 -0.73,3.209 -1.541,4.681c-0.81,1.472 -1.889,2.754 -3.236,3.848c-1.347,1.094 -2.947,1.89 -4.802,2.386Zm-8.953,-11.018c0.224,0.835 0.556,1.609 0.996,2.324c0.439,0.714 0.974,1.317 1.602,1.807c0.628,0.49 1.344,0.82 2.147,0.99c0.804,0.169 1.692,0.124 2.666,-0.137c0.973,-0.261 1.77,-0.673 2.389,-1.236c0.619,-0.564 1.07,-1.225 1.351,-1.984c0.281,-0.758 0.428,-1.555 0.44,-2.391c0.012,-0.836 -0.091,-1.659 -0.308,-2.471c-0.224,-0.834 -0.554,-1.603 -0.991,-2.306c-0.437,-0.703 -0.969,-1.299 -1.597,-1.789c-0.629,-0.49 -1.349,-0.813 -2.16,-0.968c-0.812,-0.155 -1.693,-0.106 -2.644,0.149c-0.973,0.261 -1.764,0.672 -2.372,1.232c-0.608,0.56 -1.061,1.21 -1.36,1.948c-0.299,0.739 -0.455,1.526 -0.467,2.362c-0.012,0.835 0.091,1.659 0.308,2.47Z" style="fill:#fff;fill-rule:nonzero;"/><path d="M117.975,158.636l-6.616,-24.689l6.781,-1.817l2.516,9.389l4.995,-11.401l7.65,-2.05l-6.008,13.462l13.249,11.059l-7.789,2.087l-8.552,-7.436l-1.356,2.451l1.91,7.128l-6.78,1.817Z" style="fill:#fff;fill-rule:nonzero;"/><path d="M152.476,131.614c0,-0 -0.228,-0.063 -0.684,-0.189c-0.456,-0.127 -1.048,-0.248 -1.774,-0.364c-0.727,-0.115 -1.504,-0.187 -2.331,-0.214c-0.827,-0.026 -1.612,0.06 -2.354,0.258c-0.579,0.156 -1.03,0.375 -1.352,0.658c-0.321,0.283 -0.424,0.643 -0.307,1.08c0.111,0.413 0.386,0.696 0.824,0.85c0.439,0.153 1.028,0.242 1.767,0.265c0.74,0.023 1.624,0.057 2.655,0.101c1.653,0.05 3.116,0.224 4.389,0.523c1.273,0.299 2.335,0.833 3.187,1.602c0.852,0.769 1.484,1.923 1.897,3.462c0.394,1.47 0.458,2.776 0.192,3.918c-0.265,1.142 -0.77,2.133 -1.514,2.973c-0.744,0.839 -1.637,1.54 -2.679,2.103c-1.042,0.562 -2.142,0.999 -3.301,1.309c-1.183,0.317 -2.45,0.526 -3.802,0.627c-1.351,0.102 -2.688,0.1 -4.008,-0.006c-1.32,-0.106 -2.557,-0.315 -3.709,-0.628l1.328,-6.729c-0,0 0.269,0.077 0.807,0.231c0.538,0.154 1.237,0.303 2.095,0.445c0.858,0.143 1.794,0.228 2.807,0.254c1.014,0.027 1.996,-0.087 2.946,-0.342c0.742,-0.199 1.233,-0.431 1.472,-0.696c0.239,-0.266 0.318,-0.554 0.235,-0.863c-0.13,-0.484 -0.485,-0.79 -1.066,-0.918c-0.581,-0.128 -1.316,-0.203 -2.203,-0.224c-0.888,-0.021 -1.873,-0.059 -2.957,-0.114c-1.566,-0.099 -2.895,-0.329 -3.986,-0.69c-1.091,-0.362 -1.969,-0.904 -2.635,-1.626c-0.665,-0.722 -1.158,-1.682 -1.479,-2.879c-0.488,-1.819 -0.466,-3.453 0.065,-4.903c0.531,-1.45 1.413,-2.68 2.646,-3.689c1.232,-1.009 2.66,-1.731 4.283,-2.165c1.205,-0.323 2.409,-0.491 3.611,-0.502c1.202,-0.012 2.352,0.059 3.449,0.213c1.097,0.153 2.066,0.316 2.907,0.488l-1.421,6.381Z" style="fill:#fff;fill-rule:nonzero;"/><path d="M177.622,122.528l-7.094,1.901l5.031,18.778l-6.781,1.816l-5.031,-18.777l-7.129,1.91l-1.584,-5.911l21.004,-5.628l1.584,5.911Z" style="fill:#fff;fill-rule:nonzero;"/><path d="M181.949,115.033l7.581,-2.031l14.474,22.583l-6.885,1.845l-2.572,-4.492l-6.975,1.869l0.019,5.176l-6.92,1.854l1.278,-26.804Zm10.194,13.704l-4.624,-8.078l0.035,9.308l4.589,-1.23Z" style="fill:#fff;fill-rule:nonzero;"/><path d="M224.729,130.032l-3.485,-13.006l-1.688,10.255l-3.616,0.969l-6.589,-8.037l3.485,13.005l-6.781,1.817l-6.615,-24.689l7.407,-1.985l8.432,10.189l2.243,-13.049l7.372,-1.975l6.616,24.689l-6.781,1.817Z" style="fill:#fff;fill-rule:nonzero;"/><path d="M235.752,127.078l-6.616,-24.689l10.641,-2.851c1.206,-0.323 2.384,-0.378 3.534,-0.164c1.15,0.213 2.207,0.632 3.169,1.256c0.963,0.624 1.783,1.392 2.462,2.303c0.679,0.912 1.158,1.889 1.438,2.932c0.391,1.461 0.419,2.932 0.083,4.413c-0.336,1.482 -1.002,2.797 -1.999,3.946c-0.996,1.149 -2.306,1.941 -3.929,2.376l-4.034,1.081l2.032,7.58l-6.781,1.817Zm3.165,-15.309l3.582,-0.96c0.278,-0.074 0.523,-0.227 0.735,-0.457c0.211,-0.231 0.351,-0.567 0.419,-1.007c0.069,-0.441 0.016,-0.986 -0.158,-1.635c-0.186,-0.695 -0.429,-1.208 -0.729,-1.538c-0.299,-0.329 -0.614,-0.531 -0.944,-0.604c-0.331,-0.073 -0.635,-0.072 -0.913,0.002l-3.408,0.914l1.416,5.285Z" style="fill:#fff;fill-rule:nonzero;"/></g></svg>